<svg xmlns="http://www.w3.org/2000/svg" data-name="1-Email" width="32" height="32"><rect id="backgroundrect" width="100%" height="100%" x="0" y="0" fill="none" stroke="none"/><title>1-Email</title><g class="currentLayer" style=""><title>Layer 1</title><path d="M29,4H3A3,3,0,0,0,0,7V25a3,3,0,0,0,3,3H29a3,3,0,0,0,3-3V7A3,3,0,0,0,29,4Zm-.72,2L16,14.77,3.72,6ZM30,25a1,1,0,0,1-1,1H3a1,1,0,0,1-1-1V7.23l13.42,9.58a1,1,0,0,0,1.16,0L30,7.23Z" id="svg_1" class="selected" fill="#ffffff" fill-opacity="1"/></g></svg>