<?xml version="1.0" encoding="UTF-8" standalone="no"?>
<!-- Created with Inkscape (http://www.inkscape.org/) -->

<svg
   version="1.1"
   id="svg2"
   width="2408.4668"
   height="593.28003"
   viewBox="0 0 2408.4668 593.28003"
   sodipodi:docname="logo.eps"
   xmlns:inkscape="http://www.inkscape.org/namespaces/inkscape"
   xmlns:sodipodi="http://sodipodi.sourceforge.net/DTD/sodipodi-0.dtd"
   xmlns="http://www.w3.org/2000/svg"
   xmlns:svg="http://www.w3.org/2000/svg">
  <defs
     id="defs6" />
  <sodipodi:namedview
     id="namedview4"
     pagecolor="#ffffff"
     bordercolor="#000000"
     borderopacity="0.25"
     inkscape:showpageshadow="2"
     inkscape:pageopacity="0.0"
     inkscape:pagecheckerboard="0"
     inkscape:deskcolor="#d1d1d1" />
  <g
     id="g8"
     inkscape:groupmode="layer"
     inkscape:label="ink_ext_XXXXXX"
     transform="matrix(1.3333333,0,0,-1.3333333,0,593.28)">
    <g
       id="g10"
       transform="scale(0.1)">
      <g
         id="g12"
         transform="scale(10)">
        <text
           xml:space="preserve"
           transform="matrix(1,0,0,-1,520.081,206.173)"
           style="font-variant:normal;font-weight:900;font-size:181.437px;font-family:FuturaBT;-inkscape-font-specification:FuturaBT-Heavy;writing-mode:lr-tb;fill:#f9af0b;fill-opacity:1;fill-rule:nonzero;stroke:none"
           id="text16"><tspan
             x="0 145.73399 249.74106"
             y="0"
             sodipodi:role="line"
             id="tspan14">Get</tspan></text>
      </g>
      <g
         id="g18"
         transform="scale(10)">
        <text
           xml:space="preserve"
           transform="matrix(1,0,0,-1,825.901,206.173)"
           style="font-variant:normal;font-weight:900;font-size:181.437px;font-family:FuturaBT;-inkscape-font-specification:FuturaBT-Heavy;writing-mode:lr-tb;fill:#c71e25;fill-opacity:1;fill-rule:nonzero;stroke:none"
           id="text22"><tspan
             x="0 103.564 215.72205 271.80014 345.68591 449.69385 561.49683 691.72681 802.55579 876.44147"
             y="0"
             sodipodi:role="line"
             id="tspan20">EntrepCare</tspan></text>
        <text
           xml:space="preserve"
           transform="matrix(1,0,0,-1,536.897,100.473)"
           style="font-variant:normal;font-weight:500;font-size:56.4178px;font-family:Poppins;-inkscape-font-specification:Poppins-Medium;writing-mode:lr-tb;fill:#c71e25;fill-opacity:1;fill-rule:nonzero;stroke:none"
           id="text26"><tspan
             x="0 50.098099 65.330528 86.656235 101.88867 140.47803 179.06743 200.39317 215.62556 252.57822 291.16757 306.17438 342.05569 379.00882 409.47363 424.7059 461.65906 496.80664 527.27228 557.73712 572.7439 616.01538 631.02209 664.92847 700.07593 722.07886 752.54358 788.87665 825.8288 864.41858 879.651 894.65778 951.35693 986.50446 1001.7368 1016.9692 1053.9222 1089.0698 1119.5347 1150.0004 1165.0071 1187.0093 1202.2415 1232.7073"
             y="0"
             sodipodi:role="line"
             id="tspan24">Mitigating Business &amp; Personal Wellness risk</tspan></text>
      </g>
      <path
         d="m 2224.82,4449.64 c 1228.73,0 2224.83,-996.09 2224.83,-2224.82 C 4449.65,996.078 3453.55,0 2224.82,0 996.09,0 0,996.078 0,2224.82 0,3453.55 996.09,4449.64 2224.82,4449.64 v 0"
         style="fill:#c71e25;fill-opacity:1;fill-rule:evenodd;stroke:none"
         id="path28" />
      <path
         d="m 2224.82,4338.24 c 1167.21,0 2113.42,-946.22 2113.42,-2113.42 0,-1167.21 -946.21,-2113.429 -2113.42,-2113.429 -1167.2,0 -2113.422,946.219 -2113.422,2113.429 0,1167.2 946.222,2113.42 2113.422,2113.42 v 0"
         style="fill:#ffffff;fill-opacity:1;fill-rule:evenodd;stroke:none"
         id="path30" />
      <path
         d="m 2224.82,4338.24 c 1167.21,0 2113.42,-946.22 2113.42,-2113.42 0,-1167.21 -946.21,-2113.429 -2113.42,-2113.429 -1167.2,0 -2113.422,946.219 -2113.422,2113.429 0,1167.2 946.222,2113.42 2113.422,2113.42 v 0"
         style="fill:#ffffff;fill-opacity:1;fill-rule:evenodd;stroke:none"
         id="path32" />
      <path
         d="m 846.73,1532.68 60.454,107.4 270.356,297.22 498.25,56.15 576.39,308.87 326.43,-9.34 679.99,550.49 8.65,-0.23 c 28.3,-0.76 63.77,20.83 94.37,21.62 40.07,1.05 80.83,4.14 120.03,12.83 22.3,4.95 43.78,12.55 65.9,17.41 20.5,4.51 39.61,5.36 60.52,3.41 l 5.95,-0.56 306.96,-206.63 99.61,-30.27 305.33,-218.52 26.42,-18.06 0.96,-11.05 c 5.49,-62.71 8.38,-125.65 8.38,-188.6 C 4361.68,1044.68 3404.96,87.9609 2224.82,87.9609 1430.16,87.9609 704.715,527.371 334.523,1227.77 l -10.828,20.48 523.035,284.43 v 0"
         style="fill:#c71e25;fill-opacity:1;fill-rule:evenodd;stroke:none"
         id="path34" />
      <path
         d="m 355.246,1238.73 508.606,276.58 62.457,110.96 262.631,288.72 493.95,55.66 574.86,308.06 328.87,-9.42 680.01,550.52 c 29.92,-0.81 71.99,21.01 95.6,21.62 163.69,4.27 167.93,40.81 243.66,33.74 l 304.91,-205.26 99.28,-30.17 302.61,-216.56 17.27,-11.81 c 5.37,-61.48 8.28,-123.68 8.28,-186.55 0,-1167.21 -946.21,-2113.429 -2113.42,-2113.429 -811.04,0 -1515.242,456.937 -1869.574,1127.339 v 0"
         style="fill:#c71e25;fill-opacity:1;fill-rule:evenodd;stroke:none"
         id="path36" />
      <path
         d="m 393.766,1262.51 c 30.57,79.11 70.726,156.18 125.422,228.65 12.246,29.87 19.957,64.98 4.875,100.98 -18.313,24.18 -38.586,53.94 -56.891,78.12 -43.817,58.18 -75.504,89.4 -81.301,180.17 3.199,91.37 12.797,180.62 105.699,231.16 -0.675,10.59 11.055,36.4 7.211,45.13 -29.304,66.93 21.227,112.26 110.457,101.62 60.981,-18.01 0.879,-104.83 51.196,-112.13 38.769,-8.48 81.14,10.46 128.566,19.91 30.531,6.08 81.656,2.83 111.656,8.26 28.078,24.49 29.09,55.13 56.571,43.6 7.539,2.31 14.687,-2.8 24.089,-0.01 16.129,4.73 32.114,15.27 45.014,19.26 -19.75,-1.05 -47.892,-10.91 -48.443,-1.85 5.586,20.97 19.898,25.66 70.203,25.81 36.65,49.7 62.22,99.76 125.78,144.78 11.77,45.11 62.03,73.25 84.27,107.85 -9.74,7.47 -36.41,18.44 -46.15,25.93 -1.82,3.83 0.77,24.16 -4.49,31.4 -9.03,12.47 -27.32,13.24 -30.43,19.84 -7.31,41.05 19.67,77.25 39.03,93.74 28.79,24.51 98.29,39.69 138.19,-66.87 33.26,30.06 97.88,39.08 169.87,-25.79 57.2,-23.35 93.55,-29.83 119.73,-94.52 9.34,-31.5 20.61,-53.27 29.95,-84.77 82.9,-123.91 -2.92,-103.33 -8.91,-96.41 -15.37,17.79 -10.92,76.67 -16.92,85.78 -19.55,35.47 -46.57,44.93 -65.26,86.98 -5.91,14.11 -33.55,34.62 -21.09,20.56 11.84,-46.98 66.64,-114.57 43.32,-159.11 -16.41,-48.27 -36.29,-126.3 -51.82,-157.28 0.92,-100.3 -19.22,-125.08 -24.14,-218.08 -19.63,6.98 -27.39,12.42 -47,19.38 -4.05,52.2 1.13,103.24 -2.91,155.46 -16.65,47.56 -18.5,95.94 -15.26,142.31 -4.38,0.58 -17.17,-1.81 -21.55,-1.25 -37.38,-17.07 -91.88,-31.96 -135.77,-26.81 -5.42,-14.45 -0.48,-31.58 -5.89,-46.04 4.32,-79.76 -39.41,-166.43 -35.1,-248 -28.02,-24.06 -31.35,-18.03 -59.38,-42.08 4.9,85.6 15.51,153.09 20.42,238.69 -0.32,46.4 13.37,108.39 20.62,151.13 24.54,46.94 56.73,48.75 117.63,73.24 -21.68,18.79 -46.07,42.89 -67.73,61.7 -18.27,-46.49 -52.32,-67.48 -90.92,-89.61 -35.61,-56.13 -75.24,-96.84 -131.39,-118.25 -11.67,-26.83 -29.21,-68.26 -67.61,-68.93 -26.258,-11.35 -41.922,-31.8 -82.332,-26.94 -144.649,-79.86 -144.137,-39.76 -218.731,-61.65 -31.383,-9.22 -51.836,-10.97 -80.191,-17.86 -21.278,-48.08 -20.856,-93.6 -34.379,-133.31 27.601,-14.21 102.25,36.42 114.449,-14.6 -5.863,-46.05 -74.113,-18.62 -110.129,-35.42 0.852,-7.23 -4.082,-28.44 -3.211,-35.69 39.008,-8.53 96.442,-19.42 135.453,-27.99 57,-7.24 80.942,-85.17 103.313,-133.48 39.527,-105.78 92.238,-139.66 172.198,-138.28 -21.382,-41.84 -48.257,-105.7 -69.632,-147.54 -52.66,76.24 -111.937,142.61 -148.808,216.85 -40.043,35.41 -39.153,66.94 -73.942,101.69 -28.09,-10.69 -82.113,6.01 -114.261,15.9 0.949,-25.04 -1.579,-63.36 8.793,-95.15 18.312,-56.13 26.324,-106.7 -1.848,-143.71 -29.5,-49.71 -92.07,-96.55 -108.766,-150.56 34.438,-37.37 89.121,-73.31 123.574,-110.69 -80.054,1.31 -160.097,2.61 -240.156,3.9 5.067,16.96 10.129,33.91 15.192,50.88 v 0"
         style="fill:#c71e25;fill-opacity:1;fill-rule:evenodd;stroke:none"
         id="path38" />
      <path
         d="m 2627.43,2274.86 c 26.14,67.67 60.49,133.59 107.28,195.58 10.47,25.55 17.07,55.58 4.17,86.37 -15.66,20.68 -33.01,46.14 -48.67,66.82 -37.47,49.77 -64.58,76.47 -69.53,154.1 2.73,78.17 10.94,154.5 90.41,197.73 -0.58,9.05 9.45,31.13 6.16,38.6 -25.06,57.25 18.16,96.02 94.48,86.92 52.16,-15.4 0.75,-89.66 43.79,-95.91 33.16,-7.25 69.41,8.95 109.97,17.04 26.12,5.2 69.85,2.42 95.51,7.06 24.01,20.95 24.88,47.15 48.38,37.29 6.45,1.98 12.56,-2.39 20.61,-0.01 13.79,4.06 27.47,13.06 38.5,16.48 -16.89,-0.9 -40.97,-9.33 -41.44,-1.58 4.78,17.93 17.03,21.95 60.05,22.07 31.35,42.51 53.23,85.33 107.59,123.84 10.06,38.58 53.05,62.65 72.08,92.24 -8.33,6.4 -31.15,15.79 -39.48,22.19 -1.55,3.27 0.67,20.66 -3.83,26.85 -7.73,10.67 -23.37,11.33 -26.03,16.98 -6.25,35.11 16.82,66.07 33.38,80.18 24.63,20.96 84.07,33.94 118.2,-57.21 28.45,25.72 83.72,33.43 145.3,-22.05 48.93,-19.97 80.02,-25.52 102.4,-80.85 8,-26.94 17.64,-45.56 25.62,-72.51 70.92,-105.99 -2.49,-88.38 -7.62,-82.45 -13.14,15.2 -9.33,65.56 -14.47,73.36 -16.72,30.34 -39.83,38.43 -55.82,74.4 -5.05,12.06 -28.69,29.61 -18.03,17.58 10.12,-40.18 57,-98 37.05,-136.09 -14.04,-41.29 -31.05,-108.03 -44.33,-134.53 0.79,-85.8 -16.44,-106.98 -20.64,-186.53 -16.79,5.96 -23.43,10.63 -40.2,16.57 -3.47,44.65 0.96,88.31 -2.49,132.97 -14.25,40.69 -15.82,82.07 -13.06,121.73 -3.75,0.49 -14.68,-1.55 -18.42,-1.07 -31.98,-14.6 -78.6,-27.34 -116.14,-22.92 -4.64,-12.37 -0.41,-27.02 -5.04,-39.39 3.69,-68.22 -33.71,-142.35 -30.03,-212.13 -23.96,-20.58 -26.81,-15.42 -50.78,-35.99 4.19,73.21 13.27,130.94 17.46,204.17 -0.27,39.68 11.44,92.7 17.64,129.26 20.99,40.16 48.53,41.69 100.61,62.65 -18.54,16.07 -39.4,36.69 -57.93,52.77 -15.62,-39.77 -44.75,-57.72 -77.76,-76.64 -30.47,-48.01 -64.36,-82.84 -112.39,-101.16 -9.98,-22.94 -24.99,-58.37 -57.84,-58.95 -22.45,-9.71 -35.85,-27.2 -70.41,-23.05 -123.73,-68.3 -123.29,-34 -187.09,-52.73 -26.85,-7.88 -44.34,-9.38 -68.6,-15.27 -18.19,-41.13 -17.83,-80.06 -29.4,-114.03 23.61,-12.16 87.46,31.16 97.9,-12.49 -5.02,-39.39 -63.4,-15.92 -94.2,-30.29 0.72,-6.19 -3.49,-24.33 -2.75,-30.53 33.37,-7.3 82.49,-16.62 115.86,-23.93 48.76,-6.2 69.23,-72.86 88.37,-114.19 33.81,-90.47 78.89,-119.46 147.29,-118.26 -18.29,-35.8 -41.28,-90.42 -59.56,-126.21 -45.05,65.21 -95.75,121.99 -127.28,185.49 -34.26,30.28 -33.49,57.24 -63.25,86.98 -24.03,-9.15 -70.24,5.13 -97.74,13.59 0.81,-21.42 -1.34,-54.19 7.53,-81.38 15.66,-48.01 22.51,-91.26 -1.59,-122.92 -25.23,-42.53 -78.75,-82.59 -93.03,-128.79 29.46,-31.96 76.23,-62.7 105.7,-94.67 -68.47,1.11 -136.94,2.23 -205.42,3.34 4.34,14.5 8.67,29 13,43.51 v 0"
         style="fill:#c71e25;fill-opacity:1;fill-rule:evenodd;stroke:none"
         id="path40" />
      <path
         d="m 2263.4,2192.96 -455.06,-270.27 132.74,-252.3 -79.21,-752.171 246.55,863.871 154.98,410.87 v 0"
         style="fill:#ffffff;fill-opacity:1;fill-rule:evenodd;stroke:none"
         id="path42" />
      <path
         d="m 1235.91,1794.48 -229.13,-259.77 80.87,-29.98 -23.95,-279.08 172.21,568.83 v 0"
         style="fill:#ffffff;fill-opacity:1;fill-rule:evenodd;stroke:none"
         id="path44" />
      <path
         d="M 3231.27,2681.64 C 3200.5,2542.03 3096,2347.42 3065.21,2207.85 c 81.61,19.24 125.34,13.17 206.92,32.44 -90.5,-102.06 -181.01,-204.11 -271.53,-306.18 145.6,67.71 291.18,135.42 436.77,203.09 -55.76,-136.14 -68.17,-276.35 -123.92,-412.51 -79.55,-183.29 -105.03,-259.34 -109.29,-293.42 -6.47,-51.61 73.96,-11.29 50.47,-97.03 l -262.67,-808.662 -190.54,921.452 161.7,-397.64 -146.7,861.22 -183.31,276.74 598.16,494.29 v 0"
         style="fill:#ffffff;fill-opacity:1;fill-rule:evenodd;stroke:none"
         id="path46" />
      <path
         d="m 2285.62,2271.44 c 1.17,43.31 4.88,155.46 11.62,192.62 l 11.2,198.59 c 15.45,11.48 9.62,-4.23 13.84,19.66 3.01,17.1 -1.66,13.3 -5.8,29.16 -4.34,16.65 11,44.05 -11.54,31.46 -10.05,-5.6 -4.07,-1.19 -4.47,-14.06 -0.61,-19.5 -19.22,-40.7 -32.1,-44.79 -22.67,-7.19 -51.81,-5.29 -76.44,-4.4 0.11,21.58 11.03,31.58 5.12,62.75 -7.66,40.4 2.8,32.97 4.6,52.85 0.03,0.34 -0.02,1.41 0.29,2.03 7.28,-3.33 10.13,-6.55 21.52,-6.53 5.91,6.21 3.14,5.64 7.19,10.54 10.52,12.73 1.91,4.75 13.11,6.28 5.24,0.72 5.33,-6.51 10.35,7.31 2.34,6.45 2.12,11.99 4.3,16.99 14.04,-5.71 13.12,-15.53 35.09,-7.5 -1.15,11.31 -5.6,11.91 -12.11,20.41 -13.8,18.02 1.17,52.58 -41.31,66.73 -29.78,9.92 -60.55,-9.77 -67.71,-36.96 -3.66,-13.87 1.93,-9.92 -3.98,-26.46 -36.72,-0.58 -61.39,17.45 -99.15,-23.63 -7.2,-7.84 -3.32,-5.68 -11.78,-10.72 -11.37,7.43 -21.55,16.59 -43,17.02 -2.61,0.05 -55.92,-4.72 -57.16,-5.15 -17.87,-6.2 -51.6,-40.56 -62.08,-57.88 -16.11,-26.64 10.44,-40.64 19.63,-61.92 5.45,-12.62 2.3,-11.51 10.89,-22.84 12.91,-17.01 14.69,-17.23 19.32,-40.08 6.42,-31.71 15.61,-16.34 19.2,-41.22 9.23,4.12 -3.4,1.65 11.34,7.88 -1.78,-17.2 -11.85,-38.53 7.74,-40.08 -0.09,13.47 -6.59,13.51 -5.88,33.31 47.32,0.4 29.98,-31.12 33.52,-71.64 3.85,6.83 3.12,20.79 5.43,28.79 3.2,11.09 -0.52,3.54 5.01,10.16 28.49,-68.19 43.75,-9.45 -5.59,-128.47 l -4.94,-10.82 c -0.43,-0.69 -0.93,-1.42 -1.39,-2.07 -3.88,-5.44 -1.05,-2.11 -5.28,-5.94 -0.01,8.64 0.07,18.23 1.72,24.93 3.97,16.02 2.01,6.93 10.77,16.63 -3.58,20.14 -4.33,36.2 -5.17,59.98 l -5.14,-25.76 c -1.95,-30.42 -5.7,-48.62 -5.68,-80.44 0.01,-20.82 -12.82,-48.98 -22.95,-67.76 -8.78,-16.3 -4.71,-2.25 -14.73,-15.31 -2.63,-7.22 5.55,-11.07 -2.16,-29.16 l -50.35,-122.06 c -5.07,-12.6 -23.96,-67.79 -33.05,-74.07 m 56.65,35.3 c 0.75,7.8 0.63,15.17 1.99,22.39 1.69,9.05 4.23,13.22 4.51,20.6 0.57,14.43 -5.13,2.15 0.38,18.04 l 7,20.97 c 6.92,23.89 16.84,0.95 27.16,45.58 13.46,58.33 41.57,99.74 46.87,156.68 -5.82,-4.88 -0.89,0.46 -5.77,-6.05 -0.5,-0.68 -1.01,-1.38 -1.48,-2.09 -0.44,-0.68 -0.82,-1.42 -1.22,-2.12 l -27.68,-67.51 c -3.94,-10.2 -3.48,-12.1 -6.01,-21.28 -5.29,-19.18 -6.37,-8.69 -14.61,-28.48 -0.28,-0.66 -0.57,-1.5 -0.84,-2.17 -0.27,-0.69 -0.56,-1.52 -0.83,-2.21 -0.27,-0.7 -0.56,-1.52 -0.83,-2.23 l -72.05,-182.36 39.48,8.83 c 1.33,11.34 2.9,12.85 3.93,23.41 z m 243.3,319.88 -24.19,5.06 c -11.77,-30.93 -19.07,-61.5 -30.98,-91.93 -20.08,-51.26 -23.57,-17.86 -44.71,-74.95 -38.99,-105.3 -42.37,-77.93 -56.6,-94.38 -6.02,-6.97 -6.62,-14.21 -3.55,-20.62 8.42,-17.52 23.17,-14.02 44.9,-14.86 l 5.65,-11.31 137.38,78.61 c -13.39,4.05 -28.22,8.19 -43.33,8.91 -14.45,0.69 -31.65,2.89 -42.92,8.13 l 6.66,19.42 c 14.9,48.28 44.89,98.49 44.73,144.31 -0.26,49.16 9.19,25.7 6.96,43.61 z m -17.61,137.59 c 13.15,-13.48 86.5,-52.67 102.23,-75.07 11.88,-16.94 3.71,-82.54 0.41,-102.03 -3.01,-17.85 -7.19,-30.82 -9.27,-48.58 -4.03,-34.39 -23.15,-64.55 -19.18,-96.13 3.28,-6.43 24.91,-11.06 33.87,-12.24 l 10.1,0.48 c 0.43,0.93 1.72,0.36 2.51,0.72 3.51,14.97 12.43,180.5 10.06,197.27 -2.25,15.87 -4.89,4.54 1.37,23.74 0.25,0.77 0.6,1.5 0.83,2.31 l 1.88,17.37 c 0.75,16.96 1.57,32.15 2.44,49.31 1.6,31.83 3.86,65.53 3.72,99.19 -45.11,-0.34 -66.09,-19.16 -114.22,-19.71 -6.1,-6.8 -25.14,-32.82 -26.75,-36.63"
         style="fill:#c71e25;fill-opacity:1;fill-rule:evenodd;stroke:none"
         id="path48" />
    </g>
  </g>
</svg>
